<?xml version="1.0" standalone="no"?>
<!DOCTYPE svg PUBLIC "-//W3C//DTD SVG 20010904//EN"
 "http://www.w3.org/TR/2001/REC-SVG-20010904/DTD/svg10.dtd">
<svg version="1.0" xmlns="http://www.w3.org/2000/svg"
 width="48.000000pt" height="48.000000pt" viewBox="0 0 48.000000 48.000000"
 preserveAspectRatio="xMidYMid meet">
<metadata>
Created by potrace 1.15, written by Peter Selinger 2001-2017
</metadata>
<g transform="translate(0.000000,48.000000) scale(0.100000,-0.100000)"
fill="#000000" stroke="none">
<path d="M0 240 l0 -240 240 0 240 0 0 240 0 240 -240 0 -240 0 0 -240z m295
85 c14 -13 25 -36 25 -50 0 -17 5 -25 18 -25 24 0 42 -19 42 -46 0 -38 -26
-54 -88 -54 -46 0 -60 -4 -70 -20 -17 -27 -52 -27 -45 0 4 14 0 20 -13 20 -48
0 -71 66 -34 97 11 10 20 26 20 36 0 31 45 67 85 67 25 0 44 -8 60 -25z"/>
</g>
</svg>
